{"glyphs":{"0":{"ha":954,"x_min":75,"x_max":892,"o":"m 196 975 q 75 504 75 815 q 94 213 75 364 q 181 -86 118 25 q 418 -269 261 -229 q 489 -278 451 -278 q 690 -222 583 -278 q 879 222 839 -144 q 892 440 892 336 q 833 806 892 657 q 689 1044 764 982 q 426 1111 597 1121 q 196 975 293 1104 m 300 465 q 413 825 293 768 q 539 808 504 835 q 628 568 594 767 q 653 300 653 413 q 621 94 653 185 q 479 -29 576 -36 q 300 465 311 -18 z "},"1":{"ha":789,"x_min":47,"x_max":772,"o":"m 76 875 q 47 801 47 836 q 79 738 47 765 q 147 710 111 710 q 314 822 232 710 q 326 193 328 442 q 319 -82 325 -42 q 274 -81 294 -81 q 150 -128 176 -81 q 132 -189 132 -161 q 226 -268 132 -262 q 600 -278 472 -282 q 751 -224 717 -274 q 757 -210 753 -219 q 750 -122 772 -168 q 683 -74 728 -75 q 574 -74 622 -72 q 589 275 589 19 l 589 751 q 547 1053 589 988 q 444 1111 510 1111 q 238 1033 349 1111 q 76 875 144 967 z "},"2":{"ha":1022,"x_min":28,"x_max":992,"o":"m 42 669 q 122 446 28 507 q 207 426 154 425 q 279 467 250 428 q 306 546 306 501 q 306 617 304 556 q 447 874 314 850 q 499 878 471 878 q 682 676 675 878 q 668 447 688 542 q 358 143 632 264 q 208 61 247 94 q 133 -86 146 7 q 131 -125 131 -107 q 161 -233 131 -189 q 417 -276 185 -267 q 700 -278 574 -282 q 850 -172 861 -272 q 782 -50 839 -74 q 628 -35 758 -40 q 513 -44 554 -31 q 719 75 661 35 q 906 307 829 150 q 982 594 978 456 q 813 1031 992 889 q 585 1107 740 1088 q 515 1111 551 1111 q 285 1053 397 1111 q 42 669 64 938 z "},"3":{"ha":988,"x_min":67,"x_max":932,"o":"m 914 779 q 835 1001 897 925 q 625 1106 764 1086 q 392 1111 550 1115 q 193 1090 257 1107 q 68 964 69 1057 q 151 850 67 875 q 311 843 197 836 q 483 843 439 850 q 571 807 521 836 q 628 690 628 763 q 625 654 628 674 q 513 589 617 604 q 328 590 406 574 q 282 596 301 596 q 186 571 226 596 q 138 490 138 542 q 147 438 138 467 q 303 339 175 354 q 511 331 407 335 q 676 192 676 311 q 654 83 676 157 q 558 25 640 38 q 440 22 522 19 q 240 38 365 24 q 217 40 228 40 q 132 -79 132 40 q 136 -133 132 -103 q 339 -267 150 -236 q 613 -278 431 -281 q 863 -167 767 -275 q 932 61 932 -87 q 921 192 932 118 q 797 442 890 394 q 894 542 860 451 q 921 686 921 611 q 914 779 921 718 z "},"4":{"ha":1215,"x_min":72,"x_max":1175,"o":"m 353 535 q 360 801 360 649 q 346 992 360 939 q 221 1111 318 1104 q 111 1075 160 1115 q 72 911 72 1043 q 75 835 72 876 q 89 415 90 608 l 88 235 q 151 107 96 146 q 296 65 196 75 q 544 61 444 50 l 557 -187 q 661 -278 561 -274 q 746 -226 724 -281 q 757 -119 761 -189 q 756 -56 756 -96 q 785 67 756 47 q 914 81 815 88 q 1068 85 1026 74 q 1168 194 1149 106 q 1175 253 1175 226 q 1117 331 1175 324 q 943 336 1028 340 q 775 333 840 331 q 776 618 764 435 q 789 904 790 829 q 651 1082 785 1099 q 533 786 519 1067 q 539 328 547 494 q 433 328 518 321 q 353 338 403 331 l 353 361 q 353 535 353 535 z "},"5":{"ha":1149,"x_min":60,"x_max":1119,"o":"m 535 1111 q 311 1097 403 1108 l 168 1081 q 89 1067 146 1081 q 65 868 68 960 q 61 654 60 719 q 67 485 63 543 q 92 353 69 432 q 188 293 108 293 q 253 300 219 293 l 447 340 q 643 363 560 360 q 767 351 731 365 q 847 260 810 336 q 860 213 860 235 q 807 108 860 161 q 597 18 731 32 q 401 10 451 3 q 279 14 333 18 q 197 -61 222 8 q 186 -118 186 -93 q 200 -168 186 -147 q 342 -256 235 -210 q 522 -286 414 -286 q 646 -278 581 -286 q 962 -118 831 -254 q 1107 203 1093 18 q 1014 507 1119 375 q 692 632 879 632 q 617 628 651 632 q 304 565 417 604 q 314 831 304 621 q 486 851 364 843 q 669 875 608 860 q 765 922 738 892 q 793 1018 793 953 q 699 1106 793 1090 q 535 1111 646 1114 z "},"6":{"ha":1043,"x_min":54,"x_max":1006,"o":"m 57 429 q 153 -18 63 153 q 206 -97 178 -65 q 463 -268 328 -232 q 633 -278 536 -287 q 840 -203 731 -268 q 1006 108 1006 -104 q 1003 156 1006 132 q 754 444 982 364 q 640 464 699 464 q 471 421 554 464 q 342 274 333 350 q 325 483 325 392 q 339 621 325 561 q 518 878 385 819 q 579 889 543 889 q 667 875 614 889 q 749 769 749 853 q 744 721 749 753 q 740 672 740 689 q 774 588 740 608 q 885 563 822 557 q 964 742 947 568 q 965 786 965 757 q 871 1008 965 928 q 617 1111 760 1103 q 413 1093 499 1118 q 235 994 321 1067 q 93 731 142 917 q 57 429 54 579 m 744 160 q 765 75 765 114 q 742 11 765 36 q 607 -53 682 -53 q 490 68 496 -53 q 593 211 486 165 q 654 225 625 225 q 744 160 715 225 z "},"7":{"ha":1093,"x_min":67,"x_max":1031,"o":"m 179 1079 q 76 950 107 1065 q 72 453 67 579 q 88 346 75 374 q 158 271 104 308 q 201 257 179 257 q 264 281 231 257 q 326 422 315 317 q 331 589 328 506 q 336 713 332 631 q 382 835 343 807 q 515 863 413 857 q 736 853 629 868 q 744 663 750 781 q 728 374 740 574 q 693 89 724 306 q 669 -194 667 -90 q 765 -278 671 -253 q 847 -290 813 -290 q 917 -275 885 -290 q 990 44 967 -251 q 1014 411 997 167 q 1017 849 1031 640 q 857 1096 1001 1079 q 561 1111 686 1115 q 369 1103 431 1107 q 179 1079 260 1096 z "},"8":{"ha":954,"x_min":39,"x_max":900,"o":"m 715 1004 q 463 1117 615 1117 q 285 1085 382 1117 q 121 932 149 1040 q 111 803 106 871 q 303 539 129 607 q 200 476 224 494 q 121 386 150 439 q 71 282 97 335 q 69 278 69 281 q 46 172 47 224 q 42 69 39 121 q 88 -67 44 6 q 100 -85 92 -72 q 239 -204 149 -157 q 449 -274 347 -261 q 514 -278 472 -276 q 717 -232 643 -282 q 849 -79 790 -182 q 882 28 872 -37 q 893 115 885 50 q 858 282 900 193 q 813 360 843 315 q 647 497 772 419 q 618 515 642 501 q 785 803 769 586 q 715 1004 793 917 m 524 785 q 444 713 501 724 q 347 804 347 713 q 350 844 347 828 q 415 907 360 907 q 463 897 433 907 q 528 804 522 878 q 524 785 528 797 m 475 335 q 518 331 496 335 q 619 171 617 311 q 544 -4 622 29 q 481 -19 510 -19 q 404 6 440 -19 q 324 168 324 63 q 366 285 324 236 q 475 335 408 335 z "},"9":{"ha":969,"x_min":68,"x_max":910,"o":"m 156 965 q 85 832 101 899 q 72 675 75 788 q 247 397 68 482 q 433 347 353 347 q 538 371 494 347 q 663 460 644 429 q 606 147 663 351 q 461 -76 544 -72 q 372 -44 401 -79 q 335 28 361 -32 q 249 88 310 88 q 154 44 211 88 q 126 -17 126 24 q 138 -74 126 -40 q 249 -232 175 -187 q 439 -278 313 -271 q 667 -210 585 -286 q 797 0 728 -154 q 894 401 864 149 q 910 638 910 529 q 897 817 910 735 q 758 1036 879 936 q 538 1111 668 1111 q 433 1101 482 1111 q 156 965 236 1063 m 318 703 q 314 744 314 726 q 343 830 314 797 q 424 863 372 863 q 488 854 454 863 q 567 764 567 835 q 563 732 567 750 q 438 628 540 632 q 318 703 332 624 z "}," ":{"ha":469,"x_min":0,"x_max":0,"o":""},"!":{"ha":513,"x_min":104,"x_max":431,"o":"m 393 919 q 350 1049 386 975 q 235 1111 318 1114 q 104 908 104 1107 q 107 849 104 882 q 133 319 133 526 q 167 192 133 249 q 272 125 207 125 q 385 353 354 125 q 400 639 401 474 q 393 919 399 874 m 319 -278 q 422 -140 385 -272 q 431 -83 431 -111 q 338 39 431 4 q 286 50 308 50 q 153 -71 201 50 q 135 -153 135 -117 q 239 -274 135 -239 q 319 -278 249 -283 z "},"\"":{"ha":576,"x_min":92,"x_max":539,"o":"m 251 1088 q 219 1114 233 1111 l 150 1114 q 93 1003 99 1114 q 92 947 92 975 q 104 790 92 867 q 154 728 129 732 l 186 722 q 242 757 210 722 q 278 947 278 839 q 269 1015 276 949 q 251 1088 265 1063 m 513 1026 q 421 1114 504 1114 q 360 1106 394 1114 q 331 983 331 1060 q 360 801 331 903 q 433 751 374 751 q 513 1026 539 751 z "},"#":{"ha":704,"x_min":71,"x_max":661,"o":"m 507 611 q 501 519 507 581 q 453 457 496 457 q 393 506 406 457 q 385 592 392 511 q 311 583 358 588 l 306 493 q 236 417 293 433 q 196 444 208 408 q 179 576 176 501 q 110 583 144 581 q 71 629 71 593 q 111 688 71 668 q 185 708 114 689 l 185 819 l 175 819 q 88 849 104 819 q 78 879 86 851 q 76 889 76 886 q 168 950 76 928 q 189 954 174 951 q 182 1029 182 997 q 232 1108 182 1108 q 285 1078 258 1108 q 303 1040 301 1057 q 306 979 306 1011 q 394 997 335 986 q 396 1117 394 1110 q 443 1158 404 1158 q 453 1157 447 1158 l 464 1157 q 531 1011 526 1125 l 554 1011 q 617 999 589 1011 q 653 953 653 983 q 600 890 653 931 q 528 868 560 882 l 515 760 l 539 760 q 629 751 586 760 q 661 699 661 746 q 632 658 661 675 q 507 611 578 629 m 319 838 l 324 735 q 388 744 344 739 q 389 846 388 778 q 319 838 358 844 z "},"$":{"ha":1144,"x_min":28,"x_max":1099,"o":"m 628 539 q 718 526 667 536 q 985 438 910 489 q 1099 193 1099 360 q 983 -33 1099 49 q 804 -119 917 -82 q 611 -156 685 -161 q 613 -178 613 -167 q 496 -293 613 -293 q 417 -257 439 -293 q 396 -169 399 -231 q 214 -143 268 -164 q 117 -6 117 -106 q 192 68 117 43 q 375 51 321 51 q 399 53 389 51 q 406 169 400 67 q 413 257 406 171 q 417 343 417 310 q 254 367 338 347 q 108 426 146 392 q 28 594 28 501 q 101 828 28 761 q 413 961 229 943 q 440 1065 426 1013 q 517 1125 465 1125 q 606 1069 571 1125 q 640 964 635 1024 q 756 956 719 961 q 868 929 818 949 q 957 847 957 894 q 918 765 957 776 q 785 749 861 749 q 642 756 718 749 q 628 539 636 690 m 429 643 q 422 749 429 688 q 272 710 328 751 q 228 635 228 678 q 358 556 228 556 q 397 556 397 556 q 417 557 406 556 q 428 557 426 557 q 428 574 428 561 q 429 600 429 590 q 429 643 429 600 m 617 350 q 606 60 606 285 q 788 86 754 72 q 869 238 869 121 q 819 300 869 271 q 617 350 742 346 z "},"%":{"ha":1388,"x_min":86,"x_max":1336,"o":"m 1303 94 q 1244 1 1296 69 q 1174 -51 1211 -43 q 1115 -72 1153 -58 q 968 -47 1064 -83 q 847 33 872 -11 q 806 189 806 107 q 854 347 806 253 q 947 432 874 385 q 1032 458 971 447 q 1150 446 1082 468 q 1255 391 1214 425 q 1316 289 1296 357 q 1322 171 1336 221 q 1303 94 1318 156 m 442 315 q 333 276 376 283 q 213 297 281 268 q 116 369 146 325 q 86 510 86 414 q 138 696 86 629 q 168 726 144 708 q 349 796 257 796 q 550 647 472 796 q 579 550 571 607 q 572 464 586 503 q 442 315 535 360 m 1113 239 q 1086 254 1107 249 q 1006 225 1032 261 q 992 182 992 206 q 1001 142 992 161 q 1021 117 1007 125 q 1068 107 1044 107 q 1107 124 1083 100 q 1132 165 1131 147 q 1113 239 1133 201 m 399 533 q 397 547 397 539 q 389 569 392 565 q 373 588 382 583 q 349 596 364 592 q 331 600 340 600 q 288 583 310 600 q 258 546 265 565 q 253 494 246 506 q 321 451 269 451 q 353 454 338 451 q 397 521 397 482 q 399 533 399 528 m 483 -271 q 415 -251 446 -271 q 379 -194 379 -229 q 444 35 379 -131 q 536 263 490 149 q 626 490 578 379 q 722 717 668 583 q 781 894 726 728 q 822 1015 817 1003 q 917 1086 857 1086 q 1032 951 1032 1086 q 933 643 1032 881 q 792 333 860 464 q 768 256 783 301 q 732 164 740 197 q 675 10 717 103 q 610 -144 628 -96 q 578 -219 590 -199 q 518 -271 553 -261 l 483 -271 z "},"&":{"ha":1181,"x_min":81,"x_max":1111,"o":"m 1054 247 q 972 176 1029 215 q 882 113 900 128 l 967 47 q 1075 -100 1075 -37 q 1053 -157 1075 -129 q 989 -197 1019 -197 q 882 -164 938 -197 q 789 -96 867 -154 q 717 -26 746 -62 q 501 -183 632 -92 q 367 -214 458 -214 q 274 -203 289 -214 q 221 -186 251 -196 q 99 -79 124 -143 q 81 -10 81 -33 q 83 51 81 42 q 113 98 86 61 q 171 175 139 135 q 356 356 233 235 q 238 531 286 438 q 176 729 176 647 q 235 860 176 804 q 365 929 286 908 q 546 950 443 950 q 901 811 808 950 q 932 700 932 765 q 875 564 932 636 q 757 447 840 521 q 640 329 674 372 l 721 250 q 814 317 774 282 q 899 392 842 342 q 986 442 957 442 q 1074 414 1035 442 q 1094 389 1076 408 q 1111 363 1111 369 q 1054 247 1111 319 m 508 483 q 635 636 592 576 q 643 694 643 647 q 608 736 643 726 q 546 740 593 740 q 442 693 472 740 q 436 653 436 685 q 508 483 436 575 m 467 196 l 328 46 l 324 35 q 339 0 331 8 q 372 -8 347 -8 q 396 -3 388 -8 q 550 111 447 32 l 467 196 z "},"'":{"ha":322,"x_min":49,"x_max":288,"o":"m 168 1146 q 67 1035 93 1139 q 56 867 49 965 q 58 803 57 835 q 69 743 61 764 q 133 724 86 729 q 249 864 203 715 q 286 1065 283 974 q 281 1088 288 1076 q 168 1146 240 1153 z "},"(":{"ha":600,"x_min":61,"x_max":568,"o":"m 414 1111 q 317 1085 369 1111 q 122 836 208 1031 q 61 492 61 697 q 71 322 61 417 q 169 -47 92 118 q 446 -278 276 -275 q 560 -218 550 -279 q 557 -137 568 -160 q 475 -33 538 -83 q 335 143 374 49 q 292 369 303 219 q 286 493 286 442 q 313 690 286 619 q 467 910 351 794 q 535 1026 535 978 q 492 1089 535 1064 q 414 1111 454 1111 z "},")":{"ha":604,"x_min":61,"x_max":563,"o":"m 208 -278 q 308 -253 257 -278 q 503 -4 417 -200 q 563 338 563 131 q 553 510 563 415 q 454 881 532 715 q 179 1111 347 1111 q 65 1053 74 1111 q 61 1003 61 1024 q 65 971 61 982 q 171 840 92 911 q 254 758 233 783 q 333 467 315 683 q 339 340 339 400 q 311 143 339 218 q 158 -76 271 33 q 89 -193 89 -144 q 131 -257 89 -233 q 208 -278 165 -278 z "},"*":{"ha":1115,"x_min":68,"x_max":1040,"o":"m 951 249 q 808 246 890 242 q 915 151 844 215 q 1000 43 982 90 q 990 -49 1018 -6 q 908 -92 961 -92 q 754 -1 847 -92 q 554 189 665 85 q 436 -7 499 82 q 283 -136 336 -149 q 193 -90 218 -121 q 168 -29 161 -58 q 199 33 172 -14 q 344 222 214 61 q 219 217 332 222 q 68 321 68 210 q 111 410 68 381 q 211 431 150 438 q 407 417 258 425 q 324 496 365 458 q 225 613 276 539 q 164 747 164 700 q 196 822 164 785 q 243 847 218 847 q 303 821 269 847 q 568 532 415 731 q 765 817 665 700 q 846 861 804 861 q 876 856 863 861 q 938 751 938 832 q 874 603 938 676 q 722 421 838 563 q 893 438 872 438 q 1003 419 975 438 q 1036 321 1040 394 q 951 249 1032 258 z "},"+":{"ha":1079,"x_min":114,"x_max":965,"o":"m 486 903 q 431 885 446 899 q 407 783 407 851 q 410 697 407 735 q 418 590 413 668 q 415 513 421 539 q 226 496 261 504 q 115 376 117 469 q 231 267 114 275 q 425 257 267 264 q 426 229 425 247 q 428 201 428 211 q 446 -19 428 17 q 464 -46 454 -32 q 492 -57 463 -46 q 538 -69 522 -68 q 603 -51 574 -69 q 654 47 644 -14 l 654 108 q 653 165 654 150 l 653 269 q 838 279 703 271 q 960 368 940 286 q 965 410 965 392 q 936 486 965 457 q 676 528 894 528 l 633 528 l 633 668 q 636 807 633 706 q 585 897 638 885 q 486 903 521 913 z "},",":{"ha":367,"x_min":21,"x_max":297,"o":"m 51 -301 q 196 -249 107 -301 q 289 -133 267 -206 q 297 -83 297 -106 q 210 -10 297 -10 q 148 -22 168 -10 q 119 -72 128 -35 q 69 -176 111 -110 q 21 -247 35 -233 q 33 -278 22 -258 q 51 -301 44 -301 z "},"-":{"ha":806,"x_min":78,"x_max":726,"o":"m 719 335 q 726 385 726 364 q 707 446 726 421 q 513 488 678 483 q 260 478 338 492 q 78 322 78 446 q 200 225 78 238 q 424 222 335 211 q 607 246 474 229 q 719 335 701 257 z "},".":{"ha":317,"x_min":65,"x_max":297,"o":"m 289 -117 q 210 -4 279 -4 q 127 -32 167 -4 q 74 -100 88 -60 q 65 -144 65 -125 q 94 -218 65 -186 q 124 -235 114 -226 q 125 -239 124 -236 l 125 -242 q 151 -254 133 -250 q 235 -244 200 -265 q 289 -117 297 -207 z "},"/":{"ha":646,"x_min":65,"x_max":576,"o":"m 161 213 q 103 11 132 111 q 65 -193 65 -129 q 143 -290 65 -290 q 176 -278 161 -290 q 228 -217 203 -257 q 258 -147 253 -178 q 319 61 268 -89 q 389 285 375 221 q 529 788 438 501 q 576 1014 576 935 q 531 1104 576 1090 q 492 1111 507 1111 q 410 1053 435 1111 q 321 807 353 922 q 161 213 278 642 z "},":":{"ha":472,"x_min":100,"x_max":414,"o":"m 225 851 q 149 813 183 850 q 107 746 122 792 q 110 658 100 704 q 149 581 121 607 q 238 551 176 554 q 329 585 303 549 q 374 647 342 603 q 385 707 388 674 q 374 756 382 721 q 271 844 351 833 q 225 851 247 853 m 200 -7 q 160 -131 160 -65 q 171 -206 160 -167 q 304 -260 221 -269 q 411 -136 393 -250 q 414 -101 414 -118 q 335 1 414 -18 q 265 11 296 11 q 200 -7 225 11 z "},";":{"ha":364,"x_min":42,"x_max":364,"o":"m 210 824 q 136 794 164 828 q 96 667 111 753 q 147 549 90 574 q 226 517 192 517 q 350 629 318 517 q 353 732 364 682 q 307 798 343 771 q 231 825 271 825 q 210 824 221 825 m 286 -133 q 321 -40 311 -90 q 321 33 329 4 q 226 99 310 61 q 189 108 206 108 q 114 15 135 108 q 60 -187 101 -43 q 47 -237 50 -219 q 63 -281 42 -257 l 76 -287 q 143 -265 114 -281 q 154 -260 146 -264 q 286 -133 238 -217 z "},"<":{"ha":1003,"x_min":14,"x_max":993,"o":"m 950 -219 q 856 -264 925 -264 q 732 -239 806 -264 q 63 304 471 -151 q 14 424 14 358 q 67 571 14 492 q 697 1099 474 1008 q 753 1108 721 1108 q 822 1094 786 1108 q 924 1015 894 1067 q 942 954 942 983 q 907 888 942 918 q 528 604 733 736 q 356 440 396 519 q 883 31 526 231 q 990 -97 972 -46 q 993 -115 993 -106 q 950 -219 993 -158 z "},"=":{"ha":1194,"x_min":217,"x_max":1043,"o":"m 217 574 q 368 482 217 492 q 644 479 542 469 q 872 501 701 485 q 1011 583 990 513 q 1019 629 1019 611 q 997 686 1019 664 q 756 724 963 721 q 397 708 521 726 q 217 574 217 682 m 240 233 q 669 142 240 113 q 874 156 772 149 q 1035 242 1015 175 q 1043 290 1043 269 q 1021 349 1043 325 q 781 385 989 383 q 421 369 554 388 q 240 233 240 346 z "},">":{"ha":1006,"x_min":14,"x_max":993,"o":"m 938 263 q 307 -265 532 -174 q 260 -274 286 -274 q 101 -204 161 -274 q 65 -115 65 -162 q 97 -51 65 -79 q 476 232 292 114 q 649 393 614 319 q 125 803 479 606 q 18 931 31 888 q 14 951 14 939 q 54 1056 14 994 q 147 1096 81 1096 q 272 1072 199 1096 q 644 832 453 1014 q 944 532 814 671 q 993 417 993 481 q 938 263 993 349 z "},"?":{"ha":1090,"x_min":96,"x_max":1017,"o":"m 339 632 q 340 669 339 632 q 393 767 342 707 q 518 838 444 828 q 622 826 582 846 q 750 624 750 767 q 717 501 750 532 q 511 406 629 421 q 496 374 494 406 q 507 125 499 297 q 581 61 510 61 q 603 64 590 61 q 682 153 661 71 q 686 208 689 181 q 683 289 679 274 q 776 333 738 318 q 874 389 814 347 q 960 481 928 426 q 1006 614 996 563 q 1014 753 1017 665 q 879 1007 1010 919 q 592 1089 769 1081 q 531 1090 561 1090 q 224 1011 324 1090 q 99 722 115 925 q 96 667 96 689 q 182 481 96 514 q 257 464 224 464 q 326 526 308 464 q 339 632 336 557 m 722 -147 q 635 -39 733 -69 q 579 -29 603 -29 q 508 -75 528 -29 q 490 -158 481 -144 q 589 -257 524 -257 q 622 -251 606 -257 q 722 -147 711 -222 z "},"@":{"ha":1458,"x_min":94,"x_max":1376,"o":"m 890 122 q 710 32 835 32 q 638 42 674 32 q 535 86 567 61 q 476 182 497 117 q 463 260 463 226 q 485 342 463 296 q 538 406 508 388 q 682 447 604 447 q 754 435 708 447 q 817 407 800 422 q 824 478 824 446 q 817 544 824 524 q 779 587 810 564 q 728 610 749 610 q 672 533 706 610 q 597 457 639 457 q 576 461 608 457 q 535 468 539 467 q 488 567 488 486 q 639 786 488 721 q 722 806 685 806 q 878 783 822 806 q 989 675 951 753 q 1024 514 1024 603 q 1020 464 1024 497 q 1017 414 1017 431 q 1064 179 1017 238 q 1138 293 1119 225 q 1150 433 1150 338 q 1142 569 1150 499 q 999 775 1129 681 q 758 865 874 865 q 549 806 643 865 q 399 643 456 747 q 350 365 350 554 q 461 86 350 179 q 793 -36 607 -36 q 825 -34 804 -36 q 857 -32 846 -32 q 942 -133 942 -32 q 738 -237 942 -237 q 388 -140 550 -237 q 150 129 218 -37 q 94 404 94 267 q 204 815 94 614 q 485 1029 283 960 q 788 1082 639 1082 q 1165 967 1025 1082 q 1336 735 1289 865 q 1376 444 1376 625 q 1279 88 1376 183 q 1093 7 1199 7 q 890 122 950 7 m 721 274 q 713 278 719 276 q 672 285 706 285 q 642 262 653 285 q 632 217 632 239 q 686 172 632 172 q 726 187 708 172 q 743 222 743 201 q 740 251 743 244 q 721 274 738 257 z "},"A":{"ha":1094,"x_min":53,"x_max":1026,"o":"m 585 1111 q 529 1114 554 1114 q 338 1074 419 1114 q 206 935 243 1028 q 128 640 167 836 q 76 314 83 415 q 61 57 74 272 q 75 -151 53 -81 q 221 -278 110 -264 q 257 -281 243 -281 q 394 -114 394 -281 q 392 -76 394 -99 q 372 206 382 3 q 375 392 365 338 q 478 531 394 503 q 596 542 519 544 q 703 332 669 539 q 719 94 717 249 q 732 -141 722 -68 q 776 -246 742 -214 q 883 -278 811 -278 q 1000 -153 963 -278 q 1026 33 1026 -68 q 1001 361 1026 182 q 947 681 969 592 q 585 1111 847 1088 m 651 790 q 544 731 631 731 q 461 733 475 731 q 396 779 418 742 q 386 810 386 796 q 417 869 386 839 q 538 911 463 917 q 654 811 654 903 q 651 790 654 800 z "},"B":{"ha":1038,"x_min":56,"x_max":993,"o":"m 474 1111 q 285 1085 379 1110 q 61 797 74 1029 q 56 603 56 701 q 94 56 56 336 q 268 -236 125 -162 q 421 -278 319 -262 q 521 -285 469 -285 q 810 -233 657 -285 q 979 -64 943 -189 q 992 85 993 -15 q 835 376 988 285 q 535 454 764 418 q 865 600 788 482 q 929 799 929 697 q 925 846 929 818 q 661 1097 893 1060 q 474 1111 568 1113 m 294 778 q 436 906 290 901 q 594 806 585 910 q 450 676 606 700 q 407 672 424 672 q 294 778 299 672 m 393 207 q 478 225 436 225 q 544 215 511 225 q 671 92 671 178 q 664 50 671 72 q 518 -31 639 -31 q 414 -12 468 -31 q 318 96 322 18 q 393 207 314 174 z "},"C":{"ha":1108,"x_min":53,"x_max":1032,"o":"m 835 785 q 906 776 874 776 q 1021 904 1032 776 q 850 1101 1007 1068 q 706 1121 792 1121 q 574 1111 647 1121 q 344 1057 424 1092 q 163 914 249 1014 q 67 649 92 831 q 53 442 53 544 q 61 282 53 363 q 332 -212 104 -118 q 649 -278 499 -282 q 864 -237 713 -276 q 1004 -93 1004 -175 q 992 -39 1004 -64 q 774 56 946 56 q 695 51 747 56 q 617 46 643 46 q 360 224 417 46 q 322 435 322 342 q 343 565 322 508 q 683 803 429 803 q 835 785 750 803 z "},"D":{"ha":1222,"x_min":57,"x_max":1154,"o":"m 1154 369 q 1085 731 1154 561 q 1076 746 1079 738 q 979 921 1022 868 q 824 1040 922 992 q 601 1111 726 1089 q 506 1119 554 1119 q 296 1092 410 1119 q 101 957 150 1056 q 63 718 71 896 q 81 397 57 618 q 292 -233 139 -167 q 589 -278 401 -282 q 717 -260 658 -276 q 1014 -79 911 -204 q 1108 71 1092 17 q 1154 369 1154 218 m 569 754 q 776 602 690 728 q 853 351 863 476 q 800 157 843 226 q 639 42 749 75 q 542 26 588 26 q 429 53 479 26 q 358 138 372 83 q 332 321 343 193 q 332 551 322 436 q 408 750 349 722 q 483 764 439 764 q 569 754 524 764 z "},"E":{"ha":974,"x_min":33,"x_max":868,"o":"m 856 869 q 861 901 857 874 q 842 998 868 946 q 775 1068 815 1050 q 518 1111 661 1106 q 383 1099 474 1113 q 63 851 101 1056 q 33 553 33 700 q 39 426 33 499 q 56 27 51 257 q 281 -242 60 -203 q 569 -269 331 -250 q 675 -278 656 -278 q 836 -150 836 -278 q 831 -111 836 -129 q 618 -40 801 -25 q 393 -28 519 -49 q 324 8 360 -22 q 310 92 296 32 q 364 154 324 154 q 393 157 376 157 q 431 154 410 157 q 522 147 447 151 q 679 133 574 144 q 828 157 775 124 q 854 194 849 178 q 860 256 860 236 q 818 328 860 299 q 736 356 782 353 l 638 361 q 503 360 586 364 q 375 361 421 356 q 285 460 301 369 q 278 579 278 547 q 297 689 289 669 q 378 763 317 740 q 511 786 446 788 q 657 786 578 785 q 772 796 744 788 q 856 869 826 811 z "},"F":{"ha":1063,"x_min":104,"x_max":1026,"o":"m 343 651 q 381 764 343 713 q 515 838 429 829 q 781 824 649 850 q 897 810 851 810 q 949 821 932 810 q 1026 944 1026 871 q 1018 1003 1026 971 q 900 1089 1000 1072 q 650 1111 786 1107 q 419 1099 542 1114 q 231 1053 296 1083 q 104 914 135 1008 l 104 89 q 106 81 104 85 q 117 -49 110 60 q 197 -264 129 -231 q 310 -278 229 -279 q 432 -244 393 -276 q 456 -181 456 -225 q 443 -96 456 -144 q 417 99 415 11 q 532 175 418 179 q 765 161 532 175 q 924 236 883 154 q 943 314 943 276 q 789 436 943 436 q 746 435 761 436 q 496 408 679 429 q 463 407 483 407 q 364 467 379 407 q 354 542 357 496 q 349 596 353 556 q 343 651 343 631 z "},"G":{"ha":1261,"x_min":60,"x_max":1197,"o":"m 1197 689 q 1139 907 1197 803 q 979 1063 1078 1017 q 735 1111 893 1103 q 536 1108 604 1118 q 161 890 313 1076 q 74 619 89 801 q 60 336 60 454 q 113 -29 60 71 q 207 -153 151 -104 q 336 -237 246 -187 q 560 -278 401 -274 q 801 -271 733 -282 q 1001 -157 942 -249 q 1093 94 1060 -65 q 1100 163 1100 128 q 1082 276 1100 221 q 908 404 1053 367 q 731 432 800 432 q 693 429 711 432 q 596 415 661 425 q 506 382 539 406 q 486 321 486 368 q 497 231 486 285 q 592 143 515 143 q 679 163 628 143 q 794 190 753 190 q 850 157 840 190 q 863 61 868 93 q 836 -6 860 26 q 757 -44 813 -37 q 665 -53 757 -44 q 368 71 426 -53 q 318 258 324 161 q 360 681 301 540 q 579 836 418 821 q 615 838 599 838 q 839 704 767 838 q 853 636 840 699 q 879 570 861 592 q 942 527 897 549 q 1033 507 988 506 q 1129 529 1072 508 q 1197 689 1197 554 z "},"H":{"ha":1122,"x_min":60,"x_max":1017,"o":"m 701 714 q 618 613 703 631 q 464 611 599 610 q 353 658 371 613 q 347 789 346 676 q 329 954 349 874 q 200 1111 292 1111 q 147 1101 178 1111 q 64 947 79 1081 q 61 751 60 908 q 74 457 63 651 q 90 139 78 367 q 99 -62 100 -19 q 101 -154 99 -67 q 128 -241 103 -214 q 213 -278 153 -268 q 381 -162 378 -306 q 374 35 382 -92 q 367 272 365 163 q 436 374 368 378 q 607 382 489 369 q 717 265 713 393 l 726 -15 q 740 -153 729 -114 q 824 -251 761 -233 q 881 -261 854 -261 q 976 -214 942 -261 q 1011 -107 1007 -172 q 1000 124 1017 -11 q 969 354 989 200 q 964 465 968 368 l 950 769 q 951 939 947 835 q 929 1053 954 1006 q 836 1111 899 1111 q 779 1097 811 1111 q 701 925 714 1069 q 701 714 699 892 z "},"I":{"ha":840,"x_min":58,"x_max":778,"o":"m 579 1090 q 414 1111 504 1111 q 250 1096 338 1111 q 60 961 61 1063 q 86 817 58 857 q 139 774 110 782 q 292 754 154 771 q 297 583 292 699 q 300 413 303 478 q 304 225 299 363 q 304 39 310 103 q 267 46 269 46 q 224 51 244 51 q 101 -74 111 51 q 157 -214 94 -165 q 303 -272 201 -250 q 525 -278 378 -289 q 688 -237 622 -271 q 778 -110 778 -193 q 774 -75 778 -93 q 567 13 747 35 q 551 54 553 8 q 551 108 550 72 q 543 347 554 189 q 531 588 531 518 q 524 753 531 675 q 583 749 557 749 q 660 764 632 749 q 732 851 701 786 q 747 921 747 883 q 738 983 747 951 q 579 1090 717 1051 z "},"J":{"ha":1131,"x_min":50,"x_max":1051,"o":"m 833 1111 q 501 1089 679 1115 q 396 976 414 1076 q 393 944 393 961 q 464 832 393 875 q 600 796 525 796 q 621 797 611 796 q 639 590 628 713 q 639 532 639 532 q 640 497 639 519 q 640 474 640 481 q 631 263 640 403 l 617 63 q 571 7 613 13 q 504 10 532 3 q 397 82 476 17 q 326 151 361 117 q 244 203 281 194 q 172 210 208 211 q 103 188 133 207 q 60 104 71 161 q 61 10 50 53 q 319 -235 101 -147 q 481 -276 419 -275 q 585 -276 538 -278 q 726 -242 674 -274 q 819 -135 778 -211 q 879 207 872 -37 q 883 572 888 474 q 879 817 879 676 q 1039 938 1003 825 q 1040 1014 1051 979 q 833 1111 1010 1106 z "},"K":{"ha":1193,"x_min":57,"x_max":1132,"o":"m 1125 911 q 994 1047 1117 1047 q 788 946 913 1047 q 613 781 735 903 l 592 760 q 506 678 582 750 q 415 606 494 668 l 410 601 q 386 592 397 592 q 344 765 342 592 q 332 1033 347 968 q 249 1106 319 1089 q 213 1111 226 1111 q 108 1049 149 1111 q 69 928 75 999 q 63 763 68 911 q 72 435 57 607 l 100 125 q 124 -83 103 93 q 133 -168 126 -110 q 168 -236 135 -181 q 285 -278 196 -283 q 399 -103 408 -269 q 374 75 394 -42 q 364 165 369 96 q 363 231 361 203 q 626 -37 469 97 q 863 -193 754 -147 q 999 -231 951 -231 q 1019 -228 1011 -231 q 1119 -93 1119 -196 q 1067 0 1119 -53 l 1044 22 q 872 149 972 94 q 704 264 810 182 q 539 383 589 353 q 755 526 607 436 q 972 669 903 615 q 1125 911 1132 793 z "},"L":{"ha":1104,"x_min":56,"x_max":1013,"o":"m 211 1111 q 189 1107 207 1111 q 118 1079 146 1104 q 61 876 56 1035 q 65 747 63 839 q 71 528 67 707 q 90 268 74 428 q 108 76 94 215 q 118 -19 111 49 q 147 -117 122 -65 q 210 -197 175 -172 q 413 -265 267 -237 q 529 -278 476 -278 q 815 -260 654 -278 q 940 -237 915 -249 q 1013 -68 1013 -206 q 939 26 1013 0 q 808 40 885 47 q 669 35 744 35 q 565 21 635 31 q 397 69 456 21 q 365 326 356 104 q 369 436 367 360 q 397 667 374 539 q 422 849 404 718 q 419 956 429 896 q 386 1054 410 1015 q 211 1111 338 1135 z "},"M":{"ha":1382,"x_min":58,"x_max":1297,"o":"m 669 293 q 572 901 649 667 q 353 1106 514 1079 q 294 1111 319 1111 q 104 982 163 1111 q 64 738 58 881 q 78 503 69 576 q 78 139 86 422 q 132 -224 68 -154 q 232 -278 181 -278 q 260 -274 243 -278 q 374 -150 360 -249 q 367 29 376 -132 q 342 433 358 172 q 343 739 324 669 q 439 444 403 614 q 494 176 475 274 q 540 -93 525 22 q 621 -204 551 -172 q 707 -229 672 -229 q 799 -199 739 -229 q 921 367 854 -171 q 992 724 946 565 q 990 346 986 443 q 1003 117 997 190 q 1026 -79 1015 -29 q 1125 -237 1054 -201 q 1182 -254 1157 -254 q 1293 -67 1286 -254 q 1288 240 1297 31 q 1272 619 1283 367 q 1207 976 1261 872 q 1040 1106 1140 1106 q 922 1076 986 1106 q 756 719 835 1036 q 669 293 725 601 z "},"N":{"ha":1329,"x_min":61,"x_max":1243,"o":"m 376 1078 q 257 1101 306 1101 q 94 989 161 1101 q 61 746 61 933 q 64 633 61 689 q 67 288 67 576 q 121 -212 67 -112 q 254 -278 156 -278 q 351 -221 317 -278 q 381 -106 381 -172 q 368 -7 381 -64 q 301 504 335 144 q 300 539 300 519 q 354 656 300 628 q 367 660 360 660 q 440 546 403 660 q 542 263 469 458 q 817 -231 686 -129 q 947 -274 872 -274 q 1006 -268 978 -274 q 1136 -185 1096 -250 q 1186 -33 1165 -137 q 1235 583 1235 211 q 1239 696 1235 621 q 1243 808 1243 771 q 1057 1111 1243 1111 q 903 913 906 1111 q 922 435 900 708 q 939 78 944 161 q 925 29 936 29 q 908 44 917 29 q 815 264 871 110 q 736 490 789 339 q 601 824 651 725 q 376 1078 492 1039 z "},"O":{"ha":1115,"x_min":39,"x_max":1007,"o":"m 92 875 q 40 560 39 689 q 42 349 40 454 q 63 142 44 211 l 107 -32 q 169 -147 107 -81 q 279 -226 226 -207 q 406 -265 356 -256 q 533 -278 433 -271 q 575 -279 554 -279 q 758 -249 669 -279 q 926 -111 888 -204 q 964 -3 960 -32 q 1006 456 1007 307 q 996 601 1006 515 q 982 743 985 700 q 935 931 975 833 q 857 1029 914 982 q 746 1092 800 1076 q 610 1111 701 1104 q 517 1115 561 1115 q 92 875 160 1115 m 600 821 q 714 661 678 799 q 739 453 739 567 q 731 294 739 381 q 642 3 707 50 q 526 -31 596 -31 q 465 -25 496 -31 q 324 192 354 -4 q 307 401 307 300 q 319 593 307 493 q 436 821 344 799 q 600 821 522 843 z "},"P":{"ha":1214,"x_min":124,"x_max":1171,"o":"m 1164 769 q 1126 932 1171 864 q 1001 1043 1089 990 q 697 1111 888 1111 q 414 1089 499 1111 q 151 854 199 1033 q 124 650 124 749 l 124 364 q 142 78 126 224 q 153 -67 144 29 q 265 -278 169 -258 q 363 -260 313 -287 q 424 -185 414 -232 q 431 -85 435 -147 q 413 26 426 -32 q 385 408 396 94 q 610 389 500 389 q 729 394 671 389 q 893 414 858 407 q 1128 613 1065 450 q 1164 769 1158 693 m 708 633 q 693 622 704 629 l 665 610 q 550 601 640 599 q 381 710 385 607 q 529 889 374 864 q 586 893 554 893 q 753 808 697 893 q 778 736 778 771 q 708 633 778 678 z "},"Q":{"ha":1278,"x_min":60,"x_max":1260,"o":"m 632 1111 q 540 1115 583 1115 q 115 875 183 1115 q 61 558 60 681 q 64 310 63 433 q 83 61 68 167 q 107 -76 101 -57 q 311 -247 149 -215 q 554 -276 418 -268 q 758 -253 635 -281 q 949 -111 901 -219 q 986 -1 978 -43 l 986 4 l 990 4 q 1099 -19 1000 1 q 1139 -25 1114 -25 q 1202 -16 1165 -29 q 1244 21 1239 -3 q 1253 47 1249 33 q 1257 74 1257 56 q 1250 128 1260 100 q 1219 168 1240 157 q 1015 233 1110 208 q 1028 458 1029 367 q 1018 601 1026 517 l 1004 743 q 956 931 996 833 q 875 1033 933 985 q 760 1093 824 1075 q 632 1111 717 1104 m 776 286 l 776 260 q 656 275 754 263 q 504 274 574 286 q 438 196 458 265 q 451 138 422 167 q 525 96 481 110 q 749 47 636 61 q 700 -24 749 17 q 592 -49 671 -49 q 481 -39 546 -49 q 293 190 310 -14 q 293 543 276 397 q 443 818 321 796 q 628 818 561 839 q 776 286 776 772 z "},"R":{"ha":1201,"x_min":81,"x_max":1133,"o":"m 192 1024 q 86 729 99 960 q 82 514 83 669 q 101 -40 81 288 q 110 -117 104 -85 l 110 -117 q 207 -278 110 -289 q 281 -261 258 -272 q 328 -206 311 -246 q 344 -131 344 -165 q 344 -12 343 -119 q 317 333 346 47 l 485 -4 q 600 -174 535 -103 q 775 -268 689 -268 q 828 -256 801 -268 q 900 -154 900 -221 q 800 31 900 -92 q 656 200 751 86 q 486 390 589 281 q 456 439 456 424 q 471 449 456 449 q 590 442 510 449 q 713 436 671 436 q 1106 638 990 439 q 1133 757 1133 686 q 1115 890 1133 811 q 875 1092 1076 1060 q 535 1111 682 1122 q 192 1024 269 1092 m 642 867 q 707 731 728 828 q 475 639 685 628 q 369 744 368 644 q 436 863 371 821 q 535 892 481 892 q 642 867 588 892 z "},"S":{"ha":1171,"x_min":53,"x_max":1103,"o":"m 1074 -8 q 1089 33 1074 -8 q 1099 143 1103 74 q 1058 304 1093 217 q 971 440 1019 403 q 676 519 875 513 q 515 526 606 522 q 368 571 411 538 q 318 710 310 614 q 444 844 328 817 q 611 861 515 861 q 743 854 675 861 q 813 850 785 850 q 950 906 929 850 q 963 972 963 939 q 843 1092 963 1079 l 701 1106 q 653 1107 679 1107 q 386 1078 547 1107 q 215 1015 275 1057 q 101 877 150 971 q 53 676 53 783 q 56 619 53 646 q 183 383 74 456 q 450 317 274 324 q 665 299 608 311 q 818 179 810 268 q 729 69 825 97 q 571 54 674 53 q 504 51 540 54 q 318 79 442 64 q 275 82 296 82 q 136 -15 161 82 q 128 -76 128 -49 q 176 -187 128 -146 q 308 -251 238 -240 q 453 -267 357 -257 q 589 -260 497 -272 q 886 -197 792 -233 q 958 -158 919 -185 q 1022 -108 981 -143 q 1074 -8 1046 -89 z "},"T":{"ha":1197,"x_min":69,"x_max":1161,"o":"m 1050 804 q 835 765 964 765 q 743 769 792 765 q 811 113 794 336 q 824 -86 824 -60 q 746 -254 817 -226 q 649 -269 697 -268 q 549 -243 594 -271 q 494 -160 499 -211 q 488 36 488 -81 q 488 343 486 218 q 483 590 489 506 l 472 761 q 268 750 336 746 q 183 763 221 753 q 106 817 125 792 q 69 896 69 853 q 106 994 69 944 q 213 1054 142 1044 q 632 1089 435 1086 q 882 1092 696 1090 q 1051 1068 997 1093 q 1161 908 1161 1018 q 1050 804 1161 854 z "},"U":{"ha":1272,"x_min":122,"x_max":1211,"o":"m 1161 94 q 851 -247 1146 -193 q 663 -267 746 -267 q 344 -168 492 -267 q 200 49 228 -90 q 165 339 188 111 l 129 708 q 122 842 122 779 q 147 1006 122 953 q 278 1083 186 1086 q 415 1008 381 1079 q 443 842 436 967 q 443 578 449 757 q 446 314 439 404 q 482 118 457 164 q 678 17 531 29 q 794 55 738 11 q 864 299 850 99 q 876 578 868 392 q 872 881 882 694 q 993 1081 863 1064 q 1031 1083 1014 1083 q 1171 1010 1124 1083 q 1211 850 1211 947 q 1206 776 1211 811 q 1175 436 1183 636 l 1161 94 z "},"V":{"ha":1240,"x_min":57,"x_max":1199,"o":"m 1196 931 q 1108 1111 1193 1065 q 1060 1122 1089 1122 q 993 1110 1028 1122 q 878 979 917 1082 q 821 739 847 900 q 776 489 785 522 q 613 103 682 79 q 610 90 613 90 q 583 150 603 90 q 496 431 515 360 q 442 719 453 590 q 317 1089 417 1035 q 204 1110 265 1117 q 69 979 96 1096 q 61 885 64 957 q 104 642 57 789 q 331 71 215 296 q 414 -96 357 15 q 504 -219 460 -181 q 642 -276 558 -267 q 725 -261 692 -282 q 789 -203 740 -251 q 982 174 903 -37 l 1076 428 q 1156 675 1122 550 q 1196 931 1199 838 z "},"W":{"ha":1464,"x_min":33,"x_max":1358,"o":"m 851 815 q 825 925 840 885 q 771 1021 799 993 q 671 1060 735 1058 q 499 821 544 1063 q 453 450 471 674 q 401 132 443 322 q 397 118 401 118 q 392 154 392 118 q 371 321 389 176 q 349 644 365 368 q 318 917 338 832 q 171 1107 275 1107 q 108 1089 142 1107 q 39 961 44 1054 q 56 647 33 876 q 101 257 82 378 q 138 51 115 174 q 197 -150 163 -65 q 281 -242 217 -199 q 364 -268 319 -268 q 419 -258 392 -268 q 518 -197 492 -233 q 596 118 568 -131 q 624 325 613 267 q 664 681 638 397 q 696 388 683 485 q 742 96 717 214 q 879 -228 796 -161 q 961 -278 933 -271 q 1043 -274 990 -286 q 1251 146 1168 -246 q 1351 869 1326 503 q 1322 1033 1358 968 q 1186 1113 1279 1113 q 1038 910 1081 1113 q 1010 622 1024 838 l 988 281 q 969 96 976 133 q 964 83 968 83 q 946 167 954 83 q 936 258 943 197 q 924 349 932 267 q 892 553 922 363 q 851 815 881 625 z "},"X":{"ha":1074,"x_min":26,"x_max":1013,"o":"m 932 -271 q 853 -271 904 -283 q 778 -221 801 -258 q 581 154 696 -97 q 536 238 553 213 q 475 65 494 122 q 394 -222 451 -32 q 268 -285 372 -285 q 163 -244 208 -285 q 117 -144 117 -204 q 131 -78 117 -114 q 233 154 158 -6 l 318 335 q 336 393 336 374 q 310 456 336 417 q 207 601 258 529 q 114 753 147 688 q 35 924 47 879 q 26 974 26 950 q 61 1060 26 1022 q 193 1115 110 1115 q 375 901 321 1115 q 415 789 390 842 q 514 542 426 765 q 630 826 588 688 q 696 1010 672 964 q 842 1111 754 1119 q 964 1032 919 1104 q 992 947 992 988 q 981 896 992 919 q 949 819 956 843 q 817 583 894 718 q 750 482 783 533 q 701 381 701 408 q 708 349 701 364 q 785 231 732 297 q 908 72 881 111 q 999 -99 986 -37 q 1010 -186 1007 -143 q 932 -271 1013 -233 z "},"Y":{"ha":1153,"x_min":57,"x_max":1051,"o":"m 919 260 q 714 169 846 169 q 671 172 693 169 q 686 -7 674 83 q 710 -158 696 -68 q 694 -231 714 -196 q 642 -275 675 -265 q 556 -281 608 -285 q 458 -115 461 -272 q 433 167 457 -25 q 228 223 311 163 q 118 400 146 283 q 68 760 104 461 q 57 917 57 853 q 100 1074 57 1043 q 218 1114 161 1117 q 367 953 356 1106 q 385 674 371 876 q 392 560 388 636 q 474 400 400 428 q 550 389 499 390 q 706 506 685 385 q 711 640 713 547 q 706 894 710 708 q 776 1090 700 1057 q 886 1117 838 1117 q 1021 1024 981 1117 q 1047 849 1051 954 q 1017 542 1042 690 q 919 260 982 336 z "},"Z":{"ha":1119,"x_min":57,"x_max":1008,"o":"m 488 1111 q 274 1094 383 1122 q 106 983 139 1060 q 85 897 85 936 q 110 821 85 854 l 156 783 q 371 743 240 749 q 485 740 436 740 q 564 744 499 742 q 632 744 629 747 q 511 565 588 679 q 454 486 492 536 l 454 483 q 453 482 453 483 l 450 482 q 453 486 450 486 q 253 576 285 572 q 181 586 233 579 q 94 557 143 592 q 57 497 57 529 q 61 474 57 486 q 181 367 85 401 q 247 335 204 356 q 338 290 263 325 q 217 128 276 210 q 110 -42 144 28 q 97 -97 97 -67 q 115 -181 97 -135 q 318 -278 149 -264 q 548 -270 396 -285 q 774 -262 700 -256 q 924 -239 824 -267 q 1008 -140 1008 -215 q 989 -56 1008 -93 q 925 1 967 -11 q 847 10 899 10 q 679 -4 778 10 q 410 -32 499 -29 q 469 69 446 32 q 572 219 507 118 l 572 222 q 611 194 575 211 q 738 136 653 175 q 863 96 822 97 q 961 179 919 94 q 964 218 965 188 q 935 276 963 249 q 690 406 900 304 q 894 728 796 553 q 974 946 974 868 q 965 989 974 971 q 849 1089 929 1069 q 685 1101 818 1096 q 488 1111 522 1107 z "},"[":{"ha":507,"x_min":0,"x_max":517,"o":"m 506 988 q 435 1094 517 1065 q 290 1111 381 1114 q 63 1058 57 1104 q 0 271 0 592 q 46 -214 0 -129 q 203 -278 79 -275 q 363 -275 318 -281 q 497 -169 497 -258 q 478 -93 497 -135 q 250 -71 401 -85 q 243 249 243 89 q 272 918 243 581 q 374 908 324 908 q 474 918 424 908 q 506 988 500 951 z "},"\\":{"ha":511,"x_min":0,"x_max":511,"o":"m 415 213 q 474 11 444 111 q 511 -193 511 -129 q 433 -290 511 -290 q 400 -278 415 -290 q 349 -217 374 -257 q 318 -147 324 -178 q 257 61 308 -89 q 188 285 201 221 q 47 788 139 501 q 0 1014 0 935 q 46 1104 0 1090 q 86 1111 69 1111 q 167 1053 142 1111 q 256 807 224 922 q 415 213 299 642 z "},"]":{"ha":504,"x_min":-8,"x_max":506,"o":"m 1 -156 q 72 -261 -8 -233 q 215 -278 125 -281 q 442 -225 449 -271 q 506 561 506 238 q 458 1047 506 963 q 301 1111 424 1110 q 143 1107 185 1113 q 15 1039 36 1093 q 8 1000 8 1021 q 29 926 8 965 l 256 903 q 263 588 263 744 q 232 -85 263 251 q 129 -75 182 -75 q 32 -83 82 -75 q 1 -156 6 -119 z "},"^":{"ha":543,"x_min":26,"x_max":519,"o":"m 454 746 q 329 846 396 746 q 271 935 329 846 q 199 811 213 831 q 90 729 142 731 q 33 774 43 728 q 56 865 26 808 q 107 949 81 907 q 265 1088 190 1088 q 406 1007 331 1088 q 500 868 463 946 q 519 800 519 828 q 454 746 519 746 z "},"_":{"ha":600,"x_min":21,"x_max":592,"o":"m 582 -196 q 586 -147 592 -165 q 572 -124 582 -133 q 401 -96 547 -99 q 182 -101 244 -93 q 21 -204 21 -124 q 151 -272 21 -260 q 324 -269 228 -278 q 483 -254 368 -265 q 582 -196 567 -247 z "},"`":{"ha":278,"x_min":60,"x_max":219,"o":"m 140 1094 q 210 999 193 1089 q 217 865 219 946 q 207 764 215 818 q 164 747 194 751 q 85 867 117 740 q 60 1028 61 958 q 64 1047 60 1039 q 140 1094 90 1100 z "},"a":{"ha":1028,"x_min":18,"x_max":925,"o":"m 378 940 q 329 919 363 935 q 310 911 322 915 q 236 811 261 892 q 229 771 229 788 q 279 671 229 714 q 386 628 329 628 q 417 631 404 628 q 542 638 494 647 q 625 563 590 628 q 646 464 646 524 q 638 376 646 426 q 633 346 638 374 q 594 375 618 357 q 379 426 508 426 q 329 425 349 426 q 108 328 199 415 q 18 111 18 240 q 181 -194 18 -82 q 324 -237 236 -233 q 515 -210 419 -243 q 674 -104 625 -172 l 688 -76 q 789 -186 731 -176 q 821 -189 806 -189 q 918 -135 885 -189 q 925 -103 925 -124 q 885 7 925 -57 q 850 204 850 63 q 858 357 850 272 q 874 699 885 629 q 822 826 864 760 q 715 916 793 875 q 579 957 636 957 l 485 957 q 378 940 418 958 m 338 -21 q 286 -7 310 -21 q 246 99 238 21 q 368 188 254 188 q 460 117 435 188 q 468 76 468 93 q 424 4 468 32 q 338 -21 385 -21 z "},"b":{"ha":988,"x_min":33,"x_max":951,"o":"m 172 1054 q 57 917 69 1033 q 44 628 53 878 q 89 94 33 289 q 435 -246 176 -215 q 519 -251 481 -251 q 860 -101 739 -251 q 951 121 951 13 q 922 243 951 182 q 622 442 842 411 q 557 447 583 447 q 297 297 383 447 q 364 790 364 629 q 363 850 364 836 q 172 1054 339 1088 m 442 71 q 438 142 421 97 q 486 196 449 172 q 557 219 524 219 q 635 179 600 219 q 643 106 650 161 q 594 30 636 54 q 504 26 551 6 q 442 71 457 47 z "},"c":{"ha":932,"x_min":31,"x_max":861,"o":"m 860 726 q 471 963 832 954 q 114 831 196 969 q 46 547 67 750 q 38 250 31 388 q 267 -193 56 -106 q 540 -250 415 -254 q 726 -215 596 -249 q 844 -74 844 -161 q 832 -8 844 -40 q 678 88 794 88 q 569 70 640 88 q 460 53 497 53 q 290 183 331 53 q 258 367 258 286 q 276 478 258 426 q 519 663 340 663 q 699 629 597 663 q 782 613 750 613 q 861 699 861 613 q 860 726 861 715 z "},"d":{"ha":1063,"x_min":69,"x_max":1003,"o":"m 958 963 q 831 1031 900 1031 q 799 1028 814 1031 q 682 939 707 1010 q 671 797 671 907 q 690 336 671 647 q 365 469 517 469 q 239 444 301 469 q 69 157 69 376 q 76 65 69 118 q 514 -253 115 -236 q 867 -112 763 -264 q 961 246 943 -3 l 990 653 q 1003 792 1003 731 q 958 963 1003 910 m 399 31 q 347 117 347 72 q 374 183 347 150 q 457 228 408 228 q 549 197 500 228 q 610 115 610 158 q 571 44 610 82 q 476 -1 522 -1 q 399 31 438 -1 z "},"e":{"ha":936,"x_min":47,"x_max":894,"o":"m 892 668 q 631 963 889 904 q 467 982 543 982 q 229 904 321 982 q 47 464 47 778 q 56 314 47 388 q 271 -212 104 -121 q 475 -268 372 -268 q 610 -246 542 -268 q 776 -67 786 -189 q 700 32 769 32 q 661 26 679 32 q 456 6 558 -6 q 321 135 369 14 q 290 274 290 211 q 294 319 290 297 q 542 260 431 260 q 731 318 649 260 q 892 668 894 435 m 464 717 q 514 729 493 729 q 600 657 571 729 q 619 576 619 610 q 597 522 619 542 q 486 489 556 485 q 406 523 440 492 q 371 600 372 554 q 464 717 368 676 z "},"f":{"ha":929,"x_min":17,"x_max":919,"o":"m 897 86 q 919 178 919 132 q 913 226 919 200 q 747 299 893 297 q 499 268 599 300 q 479 561 489 392 q 586 746 469 744 q 774 876 774 749 q 767 924 774 899 q 669 1047 739 1019 q 506 1058 619 1067 q 276 935 369 1049 q 206 707 206 849 q 211 618 206 657 q 257 249 243 388 q 124 239 190 243 q 26 167 42 222 q 17 119 17 142 q 110 8 17 36 q 201 -7 160 -7 q 271 6 239 -7 q 368 -262 261 -247 q 465 -258 435 -272 q 524 -186 494 -244 q 535 -92 535 -156 q 528 32 535 -40 q 760 18 656 19 q 897 86 863 17 z "},"g":{"ha":901,"x_min":29,"x_max":842,"o":"m 393 967 q 44 643 72 919 q 83 403 29 493 q 285 268 142 308 q 397 253 339 253 q 632 332 519 253 q 639 113 650 225 q 565 -42 629 3 q 494 -68 528 -68 q 436 -49 465 -68 q 360 83 374 -7 q 265 153 349 153 q 219 149 244 153 q 103 6 96 128 q 172 -190 111 -124 q 361 -274 232 -257 q 426 -278 392 -278 q 718 -149 607 -278 q 825 157 824 -26 l 826 343 q 835 574 829 397 q 714 885 842 772 q 469 972 615 972 q 393 967 431 972 m 368 718 q 496 654 451 726 q 517 589 517 621 q 492 526 517 554 q 360 476 442 471 q 281 599 276 483 q 368 718 283 710 z "},"h":{"ha":1028,"x_min":-8,"x_max":983,"o":"m 775 440 q 661 472 743 460 q 610 476 635 476 q 279 275 442 476 q 294 714 292 585 q 294 824 296 772 l 293 908 q 214 1010 293 978 q 156 1022 182 1022 q 64 992 108 1022 q -7 800 -8 942 q 8 522 -6 692 l 31 246 q 44 93 42 117 q 49 8 44 61 q 49 -154 54 -54 q 103 -247 46 -215 q 215 -272 149 -272 q 367 -122 333 -272 q 408 40 390 -15 q 490 183 444 150 q 578 213 519 206 q 671 93 632 219 q 739 -185 682 58 q 839 -260 765 -260 q 983 -83 983 -260 q 978 7 983 -44 q 918 246 965 126 q 775 440 857 401 z "},"i":{"ha":488,"x_min":49,"x_max":428,"o":"m 253 651 q 403 738 340 649 q 425 822 425 769 q 417 900 425 857 q 294 1031 394 1015 q 235 1035 268 1035 q 109 993 150 1035 q 54 865 68 951 q 49 810 49 832 q 78 719 49 753 q 160 667 103 692 q 253 651 190 653 m 251 463 q 153 285 175 446 q 139 54 149 256 q 139 -115 132 -78 q 233 -239 154 -214 q 301 -250 268 -250 q 367 -236 336 -250 q 426 -137 424 -211 q 417 -5 428 -93 q 407 128 406 83 q 400 314 413 236 q 319 460 379 447 q 267 465 285 465 q 251 463 254 465 z "},"j":{"ha":807,"x_min":33,"x_max":757,"o":"m 732 964 q 600 1042 685 1040 q 436 974 500 1043 q 393 874 393 926 q 404 817 393 847 q 600 690 454 678 q 713 750 668 696 q 757 874 757 804 q 732 964 757 924 m 742 343 q 726 508 746 457 q 600 592 696 590 q 474 482 497 594 q 474 290 461 421 q 478 150 483 194 q 401 47 467 54 l 314 47 q 201 75 263 47 q 146 88 174 88 q 93 75 118 88 q 33 -28 33 44 q 221 -231 33 -167 q 426 -261 336 -269 q 579 -229 524 -253 q 693 -128 657 -197 q 733 83 729 -60 l 742 343 z "},"k":{"ha":1018,"x_min":44,"x_max":972,"o":"m 893 663 l 688 393 q 529 196 606 285 q 735 111 632 153 q 846 -51 854 47 q 774 -167 839 -136 q 735 -175 756 -175 q 563 -108 672 -175 l 363 13 q 357 -144 357 -110 q 275 -253 358 -221 q 200 -269 232 -269 q 142 -251 165 -269 q 82 -118 86 -207 q 82 39 82 -65 q 61 468 78 235 q 50 835 44 708 q 85 999 56 958 q 238 1046 124 1053 q 349 843 339 1040 q 357 542 357 672 l 357 358 q 385 406 364 372 l 436 482 q 607 761 492 575 q 822 954 735 958 q 958 881 915 950 q 972 832 972 858 q 893 663 972 767 z "},"l":{"ha":482,"x_min":58,"x_max":378,"o":"m 244 1026 q 200 1035 219 1035 q 103 969 138 1035 q 63 776 58 885 q 78 481 69 608 q 103 188 88 332 q 124 -17 108 133 q 167 -185 136 -135 q 256 -251 199 -251 q 332 -228 289 -251 q 359 -168 347 -208 q 367 -104 371 -128 q 371 115 367 0 q 367 521 378 303 q 364 694 367 579 q 244 1026 357 990 z "},"m":{"ha":1514,"x_min":71,"x_max":1450,"o":"m 1261 839 q 1100 871 1193 872 q 944 813 1015 869 q 843 678 879 761 q 710 838 810 797 q 582 867 638 867 q 504 851 539 867 q 381 763 418 814 q 385 797 385 771 q 350 926 385 867 q 244 997 310 997 q 221 996 229 997 q 94 929 131 982 q 71 815 71 894 q 76 731 71 776 q 114 49 129 289 q 113 4 113 26 q 239 -243 113 -190 q 283 -253 263 -253 q 382 -172 353 -253 q 399 -35 404 -114 q 394 233 390 94 q 415 456 400 392 q 550 597 450 597 q 660 492 628 597 q 679 322 682 418 q 668 53 675 179 q 699 -124 663 -47 q 835 -219 743 -219 q 869 -217 856 -219 q 968 -103 957 -200 q 990 299 988 63 q 1040 538 992 465 q 1090 576 1067 576 q 1139 538 1115 576 q 1185 283 1189 458 q 1175 -19 1181 94 q 1247 -186 1169 -143 q 1325 -208 1288 -208 q 1392 -190 1360 -208 q 1450 21 1450 -157 q 1449 83 1450 54 q 1431 410 1436 349 q 1396 649 1415 578 q 1261 839 1356 793 z "},"n":{"ha":1146,"x_min":64,"x_max":1047,"o":"m 588 542 q 722 494 688 532 q 758 354 756 456 q 751 93 761 268 q 760 -111 744 -44 q 892 -239 788 -228 q 1040 -69 1022 -253 q 1044 82 1042 -50 q 1032 444 1047 214 q 892 792 1015 706 q 685 854 803 854 q 586 843 644 854 q 346 756 403 808 q 350 808 350 782 q 343 883 350 844 q 254 957 328 949 q 79 850 111 972 q 83 581 64 793 q 103 271 106 331 l 92 74 q 88 -61 88 0 q 243 -226 88 -232 q 369 13 381 -221 q 360 164 365 63 q 388 421 353 329 q 558 543 435 543 q 588 542 572 543 z "},"o":{"ha":1039,"x_min":61,"x_max":981,"o":"m 551 917 q 188 815 293 929 q 100 658 128 751 q 65 479 85 610 q 61 410 61 451 q 83 175 61 319 q 138 -51 107 18 q 272 -201 178 -143 q 503 -260 356 -251 q 750 -210 639 -267 q 924 -34 868 -150 q 981 211 981 82 q 978 274 981 246 q 946 543 956 490 q 719 894 892 838 q 551 917 669 911 m 703 229 q 706 176 706 192 q 633 15 706 63 q 518 -22 576 -22 q 453 -10 485 -22 q 353 176 363 25 q 343 438 346 282 q 376 610 342 558 q 533 669 418 671 q 658 571 619 668 q 690 400 681 513 q 703 229 690 400 z "},"p":{"ha":957,"x_min":53,"x_max":926,"o":"m 815 940 q 761 976 797 958 q 556 1024 665 1025 q 228 919 399 1021 q 110 764 157 876 q 63 568 72 671 q 53 378 53 461 l 53 201 q 69 -49 53 107 q 89 -192 76 -112 q 121 -244 93 -218 q 206 -279 158 -279 q 228 -276 217 -279 q 265 -265 263 -268 q 296 -235 275 -256 q 326 -86 329 -203 q 271 300 324 28 q 514 272 399 272 q 626 278 590 272 q 733 315 672 286 q 871 425 813 353 q 926 636 926 493 q 815 940 926 832 m 631 617 q 581 532 631 567 q 483 500 536 500 q 414 539 442 500 q 388 617 388 574 q 431 699 388 667 q 521 728 469 729 q 631 617 631 724 z "},"q":{"ha":888,"x_min":15,"x_max":874,"o":"m 604 274 q 595 95 604 214 q 586 -83 586 -24 q 621 -194 586 -122 q 653 -257 649 -253 q 689 -268 647 -257 q 797 -237 757 -275 q 828 -183 822 -214 q 863 197 863 14 l 863 367 q 869 592 863 367 q 840 810 874 707 q 707 968 797 949 q 532 996 600 992 q 165 925 317 1011 q 61 813 94 885 q 25 660 36 757 q 28 514 15 572 q 90 383 42 451 q 294 269 160 286 q 604 274 457 250 m 535 613 q 494 521 529 558 q 407 489 460 483 q 324 521 357 493 q 286 600 286 551 q 323 685 286 650 q 410 721 360 719 q 501 693 463 722 q 535 613 539 664 z "},"r":{"ha":863,"x_min":47,"x_max":840,"o":"m 371 625 q 361 864 386 743 q 222 961 340 961 q 169 957 199 961 q 81 906 131 960 q 47 775 47 869 q 56 668 47 731 q 88 332 71 556 q 118 1 104 108 q 147 -142 132 -107 q 247 -235 174 -199 q 281 -242 261 -242 q 358 -212 315 -242 q 411 -28 411 -176 q 406 84 411 10 q 401 196 401 158 q 436 374 401 331 q 743 504 526 486 q 831 631 840 511 q 675 760 822 749 q 371 625 528 771 z "},"s":{"ha":1090,"x_min":61,"x_max":1032,"o":"m 229 913 q 100 746 150 865 q 61 556 61 651 q 150 315 61 401 q 411 242 219 247 q 594 233 572 236 q 729 142 724 214 q 679 53 733 92 q 578 11 633 19 q 508 11 539 4 q 263 44 347 44 q 182 28 208 44 q 136 -43 151 8 q 131 -78 131 -62 q 336 -231 131 -183 q 485 -256 439 -254 q 593 -251 525 -257 l 703 -243 q 833 -212 726 -242 q 954 -117 893 -196 q 1024 22 1013 -42 q 1032 114 1032 71 q 964 315 1032 238 q 842 396 926 358 q 700 442 769 428 q 525 449 672 447 q 360 486 417 450 q 324 544 317 513 q 331 611 324 576 q 392 679 333 651 q 451 689 413 689 q 636 656 519 689 q 790 628 733 628 q 858 651 842 628 q 897 785 892 699 q 850 892 901 868 q 490 974 671 974 q 229 913 332 974 z "},"t":{"ha":1050,"x_min":43,"x_max":1033,"o":"m 886 504 q 811 513 865 507 q 738 513 771 517 q 718 511 729 511 q 664 517 697 511 l 674 717 q 682 861 676 769 q 553 1072 694 1058 q 418 1008 451 1082 q 399 846 397 963 q 403 513 400 757 q 231 508 294 503 q 88 467 156 515 q 43 381 43 435 q 53 321 43 351 q 242 199 93 199 q 418 224 315 199 q 425 -125 421 -42 q 436 -219 429 -200 q 506 -276 453 -262 q 543 -281 521 -281 q 632 -237 599 -281 q 663 -142 663 -199 q 668 54 663 -85 q 672 251 672 172 q 828 246 765 246 q 946 258 925 246 q 1008 303 993 285 q 1032 376 1031 329 q 1004 454 1033 433 q 886 504 931 504 z "},"u":{"ha":1117,"x_min":50,"x_max":1033,"o":"m 1033 -60 q 1022 -3 1033 -29 q 967 275 996 60 q 951 490 951 386 q 958 603 951 528 q 965 715 965 678 q 847 874 965 853 q 813 876 831 876 q 699 739 704 876 q 693 401 697 626 q 667 165 689 231 q 496 40 625 40 q 347 149 360 40 q 343 474 338 236 q 342 711 347 660 q 231 886 322 879 q 60 722 68 899 q 63 439 50 529 q 78 211 68 394 q 108 -15 86 71 q 254 -189 140 -133 q 483 -228 350 -235 q 731 -167 635 -219 q 792 -85 794 -132 q 881 -175 806 -150 q 935 -185 908 -185 q 1010 -144 982 -185 q 1033 -60 1033 -110 z "},"v":{"ha":1104,"x_min":50,"x_max":1049,"o":"m 908 940 q 832 908 874 940 q 717 694 772 863 q 639 447 692 613 q 596 297 625 403 q 540 153 571 203 q 450 389 494 218 q 388 644 418 517 q 350 793 375 694 q 297 904 328 872 q 185 936 258 944 q 105 901 139 931 q 61 826 71 871 q 54 744 58 813 q 94 519 50 668 q 169 299 101 496 q 379 -175 279 -19 q 535 -243 415 -232 q 667 -185 606 -250 q 824 118 769 -31 q 933 349 840 163 q 1024 586 1003 488 q 1047 746 1049 707 q 1015 850 1044 796 q 908 940 964 940 z "},"w":{"ha":1378,"x_min":68,"x_max":1294,"o":"m 657 -82 l 654 -97 q 488 -243 631 -228 q 374 -249 421 -250 q 149 1 194 -243 q 106 281 114 186 l 88 485 q 68 714 68 704 q 228 857 68 868 q 329 813 301 851 q 353 483 353 778 q 379 144 353 308 q 449 82 389 82 q 518 147 507 82 q 526 279 519 154 q 525 610 533 401 q 603 854 515 840 q 764 810 724 872 q 793 629 793 763 q 860 82 793 151 q 907 61 881 61 q 950 74 928 61 q 1018 272 1011 107 q 1011 496 1019 299 q 1007 681 1006 644 q 1063 850 1014 831 q 1146 860 1088 856 q 1239 799 1204 864 q 1265 682 1265 747 q 1257 488 1265 631 q 1263 244 1249 351 q 1289 24 1269 183 q 1294 -62 1294 -25 q 1222 -192 1294 -194 q 1161 -186 1199 -190 q 1097 -82 1110 -167 q 1053 -167 1079 -144 q 933 -218 1010 -201 q 806 -219 857 -235 q 739 -197 756 -204 q 688 -149 717 -193 q 657 -82 661 -108 z "},"x":{"ha":1132,"x_min":81,"x_max":1075,"o":"m 983 568 q 735 286 811 376 q 889 124 842 176 q 1019 -58 994 6 q 1021 -142 1029 -90 q 940 -229 1014 -190 q 883 -246 910 -246 q 806 -210 842 -246 q 564 93 749 -153 l 381 -154 q 247 -239 322 -232 q 131 -158 172 -244 q 115 -93 115 -126 q 160 22 115 -37 q 401 289 242 132 q 132 644 256 439 q 81 794 81 731 q 114 885 81 847 q 218 940 163 940 q 278 925 247 940 q 449 721 351 889 q 585 476 494 639 l 740 681 q 913 858 843 815 q 958 872 935 872 q 1051 814 1006 872 q 1075 746 1075 783 q 983 568 1075 671 z "},"y":{"ha":943,"x_min":65,"x_max":904,"o":"m 603 843 q 594 711 594 811 q 585 554 596 599 q 551 485 568 504 q 488 450 531 460 q 426 451 438 450 q 357 467 383 457 q 304 618 296 490 q 308 751 308 681 q 306 814 308 756 q 304 874 306 821 q 226 956 303 932 q 182 964 199 964 q 110 929 138 964 q 68 817 65 875 q 76 686 71 781 q 85 542 79 646 q 94 440 89 457 q 135 307 104 358 q 181 253 158 265 q 210 235 193 243 q 304 205 236 221 q 406 188 372 189 q 619 229 561 182 q 667 269 663 264 q 663 239 667 260 q 640 100 660 179 q 599 24 626 44 q 508 -6 572 4 q 421 -7 453 -6 q 331 32 404 -8 q 279 65 318 42 q 235 76 261 76 q 136 -12 147 76 q 146 -110 129 -64 q 382 -267 190 -232 q 525 -278 458 -279 q 740 -201 672 -275 q 822 -15 794 -143 q 851 190 835 44 q 865 304 856 233 q 899 700 904 610 q 882 878 893 760 q 857 940 878 919 q 779 972 835 956 q 739 978 760 978 q 646 954 696 978 q 603 843 622 922 z "},"z":{"ha":1082,"x_min":25,"x_max":1051,"o":"m 650 683 q 557 694 635 689 q 260 694 435 704 q 161 732 179 708 q 126 854 126 806 q 150 917 126 894 q 340 971 196 968 q 732 979 449 972 q 910 969 875 985 q 1001 829 971 943 q 1006 796 1006 814 q 872 554 1006 699 q 713 375 775 449 l 961 263 q 1051 153 1051 222 q 1017 63 1051 89 q 960 31 997 51 q 944 28 954 28 q 715 111 878 28 q 581 183 639 150 q 519 97 567 160 l 469 31 l 468 31 l 468 31 l 468 29 l 460 21 q 821 -17 517 18 q 899 -101 893 -25 q 782 -231 907 -221 q 632 -237 732 -235 q 150 -156 201 -251 q 126 -79 126 -112 q 133 -43 126 -60 q 238 125 160 22 q 365 281 254 144 l 82 388 q 28 476 32 413 q 65 568 25 533 q 165 607 106 603 q 447 488 221 611 q 493 463 463 479 l 613 632 q 650 683 644 678 z "},"{":{"ha":608,"x_min":0,"x_max":608,"o":"m 425 -278 q 599 -197 603 -276 q 547 -122 596 -140 q 458 -97 503 -110 q 410 4 411 -74 q 411 160 410 82 q 388 311 408 253 q 290 426 358 386 q 363 563 356 504 q 368 751 367 599 q 453 890 369 890 q 477 888 461 890 q 501 886 493 886 q 604 985 582 886 q 608 1022 608 1003 q 482 1111 608 1111 q 283 1039 378 1111 q 174 569 171 953 q 58 521 106 558 q 0 415 0 478 q 6 376 0 394 q 78 303 26 310 q 156 292 100 300 q 200 290 188 288 q 206 151 221 239 q 194 22 194 88 q 214 -137 194 -58 q 425 -278 249 -279 z "},"|":{"ha":460,"x_min":81,"x_max":372,"o":"m 253 1097 q 197 1111 224 1111 q 121 1056 147 1111 q 89 726 81 974 q 128 113 97 458 q 136 -89 139 -17 q 174 -239 149 -215 q 201 -261 181 -246 q 247 -278 201 -268 q 274 -283 263 -283 q 326 -261 300 -283 q 368 -99 365 -229 q 371 129 372 82 q 354 483 369 168 q 344 839 343 703 q 253 1097 346 1053 z "},"}":{"ha":608,"x_min":0,"x_max":608,"o":"m 182 1111 q 8 1032 6 1110 q 57 959 11 974 q 147 932 103 944 q 197 831 196 908 l 203 599 q 317 407 206 476 q 240 214 243 322 q 239 79 240 169 q 156 -57 238 -57 q 132 -55 147 -57 q 108 -53 117 -53 q 3 -158 25 -53 q 0 -189 0 -172 q 126 -278 0 -278 q 326 -203 226 -278 q 436 263 436 -121 q 550 314 499 275 q 608 418 608 360 q 601 458 608 438 q 531 532 579 526 l 453 542 q 408 546 419 546 q 403 683 386 593 q 414 806 414 744 q 393 972 414 886 q 182 1111 360 1113 z "},"~":{"ha":643,"x_min":57,"x_max":590,"o":"m 429 769 q 325 818 390 769 q 218 889 269 889 q 171 814 188 889 q 114 760 158 760 q 57 851 57 760 q 100 982 57 907 q 200 1065 147 1065 q 272 1028 231 1065 q 336 969 293 1008 q 390 938 351 956 l 407 938 q 433 944 415 940 q 456 979 443 953 q 472 1021 469 1006 q 526 1085 483 1085 q 575 1054 557 1085 q 590 996 590 1029 q 557 857 590 921 q 456 778 528 800 l 429 769 z "},"":{"ha":1083,"x_min":76,"x_max":1046,"o":"m 1039 358 q 1039 531 1046 403 q 955 733 1033 638 q 774 861 876 828 q 529 904 640 904 q 267 832 382 904 q 93 579 124 742 q 76 408 76 490 q 89 267 76 335 q 449 -60 139 -3 q 553 -69 501 -69 q 749 -36 649 -69 q 920 60 857 0 q 1014 225 983 121 q 1039 358 1024 258 m 368 676 q 399 658 388 676 q 411 619 411 640 q 408 603 411 611 q 403 586 408 603 q 364 564 390 567 q 351 571 358 565 q 331 625 340 596 q 368 676 340 676 m 294 250 l 294 276 q 300 300 294 289 q 304 303 301 303 q 322 290 310 303 q 330 265 321 289 q 339 239 339 242 q 382 176 346 210 q 540 107 439 124 q 631 107 579 100 q 690 128 667 111 q 769 278 757 175 q 776 313 769 283 l 782 318 q 789 319 785 319 q 793 318 792 318 q 811 271 814 286 q 792 175 811 221 q 674 69 761 103 q 553 53 632 54 q 429 79 494 51 q 331 151 364 107 q 315 176 325 160 q 294 250 294 218 m 735 571 q 731 611 731 597 q 749 649 728 633 q 800 621 782 672 q 803 614 800 618 q 804 576 811 590 q 768 544 792 553 q 735 571 735 551 m 614 444 q 588 476 608 474 q 576 478 582 478 q 542 443 556 478 q 533 415 536 435 q 522 369 533 408 q 516 364 519 367 q 508 361 513 361 q 490 365 503 361 q 499 450 482 404 q 572 515 522 515 q 633 493 611 515 q 660 417 660 460 q 650 374 660 392 q 639 365 647 365 q 631 375 631 369 q 614 444 624 394 z "},"":{"ha":1150,"x_min":90,"x_max":1060,"o":"m 1053 354 q 1053 526 1060 399 q 969 728 1047 633 q 788 857 892 824 q 543 900 654 900 q 281 828 394 900 q 107 574 138 738 q 90 404 90 485 q 103 263 90 331 q 463 -64 153 -7 q 567 -74 515 -74 q 764 -40 664 -74 q 969 96 915 10 q 1028 221 1011 163 q 1053 354 1038 258 m 382 671 q 404 664 394 671 q 425 615 425 643 q 422 600 425 610 q 419 588 419 590 q 417 582 419 585 q 378 560 406 563 q 365 567 374 561 q 346 619 356 590 q 382 671 354 671 m 308 246 l 308 272 q 314 296 308 285 q 318 299 315 299 q 336 286 324 299 q 344 260 336 285 q 354 235 353 236 q 397 172 360 207 q 554 103 456 119 q 644 103 590 97 q 706 124 683 107 q 783 274 772 172 q 792 308 785 283 l 796 314 q 804 315 799 315 q 807 314 806 314 q 826 267 828 282 q 790 142 826 197 q 689 64 754 88 q 626 51 661 53 q 567 47 578 49 q 446 74 508 47 q 346 147 379 103 q 308 246 308 197 m 749 567 q 746 607 746 593 q 764 644 743 631 q 781 651 772 651 q 799 641 790 651 q 815 617 808 631 q 817 608 815 614 q 818 572 825 585 q 782 539 806 549 q 749 567 749 547 m 628 440 q 603 471 622 469 q 590 474 596 474 q 557 439 569 474 q 547 411 551 429 q 542 383 547 401 q 529 358 540 374 q 522 356 526 356 q 506 361 517 356 q 513 446 496 401 q 588 511 536 511 q 649 488 625 511 q 672 390 676 418 q 653 361 665 361 q 644 371 644 364 q 628 440 638 390 z "},"":{"ha":944,"x_min":57,"x_max":886,"o":"m 840 46 q 869 83 869 63 q 696 151 869 151 q 611 147 679 151 q 546 143 588 147 q 544 176 546 154 q 543 208 543 197 q 763 265 717 221 q 831 483 810 310 q 856 778 853 676 q 751 1018 861 996 q 711 1022 731 1022 q 583 819 578 1022 l 590 583 q 585 471 592 511 q 525 390 571 397 q 443 381 496 386 q 356 410 390 375 q 326 497 321 444 q 318 613 326 501 q 303 872 314 685 q 186 1018 293 1010 q 89 983 136 1022 q 57 843 57 957 q 67 694 57 788 l 100 376 q 192 233 110 279 q 364 192 249 201 q 368 142 365 174 q 215 139 343 142 q 121 131 149 138 q 83 63 61 113 q 188 26 96 35 q 307 26 263 19 q 371 20 364 29 q 382 -43 378 11 l 314 -43 q 68 -94 68 -36 q 93 -139 68 -121 q 142 -154 114 -154 l 254 -154 l 386 -150 q 401 -221 390 -199 q 460 -265 414 -260 q 529 -262 501 -269 q 582 -156 588 -229 q 669 -154 640 -153 q 789 -151 717 -156 q 886 -89 886 -146 q 824 -44 886 -53 q 675 -36 738 -33 q 567 -43 603 -40 q 563 -15 565 -31 l 556 29 q 654 24 613 24 q 722 29 696 24 q 840 46 796 19 z "},"":{"ha":978,"x_min":47,"x_max":943,"o":"m 550 960 q 532 956 543 960 q 464 907 492 947 q 433 806 433 863 q 447 732 433 768 q 490 749 479 743 q 545 808 522 765 q 568 888 568 850 q 550 960 567 960 m 476 629 q 442 546 454 590 q 425 628 436 607 q 361 713 406 678 q 293 736 344 725 q 211 731 244 746 q 153 696 186 722 q 108 647 119 669 q 51 464 57 544 q 51 346 47 411 q 58 246 56 268 q 124 6 69 143 q 190 -83 144 -47 q 290 -114 236 -119 q 311 -110 310 -110 q 374 -72 325 -110 q 431 -24 414 -40 q 499 124 468 21 q 508 108 504 118 q 692 -89 569 -40 q 750 -99 715 -99 q 786 -85 771 -101 q 803 -74 799 -79 q 879 63 847 -43 q 903 174 894 110 q 903 188 906 179 q 882 169 893 178 q 819 142 853 147 q 643 214 729 125 q 608 315 601 257 q 690 501 608 450 q 724 514 708 513 q 785 489 758 517 q 824 428 804 468 q 843 364 840 394 q 943 543 943 446 q 886 700 943 654 q 843 728 871 715 q 744 746 788 746 q 575 711 664 746 q 476 629 522 690 z "},"":{"ha":1329,"x_min":61,"x_max":1243,"o":"m 376 869 q 257 889 306 889 q 94 794 161 889 q 61 589 61 747 q 64 492 61 540 q 67 200 67 444 q 121 -222 67 -137 q 254 -278 156 -278 q 351 -229 317 -278 q 381 -132 381 -189 q 368 -49 381 -97 q 301 383 335 79 q 300 413 300 397 q 354 513 300 489 q 367 515 360 515 q 440 419 403 515 q 542 179 469 344 q 817 -237 686 -151 q 947 -274 872 -274 q 1006 -269 978 -274 q 1136 -199 1096 -254 q 1186 -71 1165 -160 q 1235 451 1235 136 q 1239 546 1235 482 q 1243 642 1243 610 q 1057 897 1243 897 q 903 729 906 897 q 922 325 900 557 q 939 24 944 93 q 925 -18 936 -18 q 908 -6 917 -18 q 815 181 871 50 q 736 372 789 244 q 601 654 651 571 q 376 869 492 836 m 800 892 q 661 931 749 892 q 519 989 588 989 q 457 928 479 989 q 381 883 440 883 q 306 958 306 883 q 363 1065 306 1004 q 496 1133 425 1133 q 592 1103 536 1133 q 676 1054 619 1086 q 749 1028 697 1043 l 771 1028 q 806 1035 782 1031 q 835 1062 818 1040 q 857 1096 853 1083 q 929 1149 872 1149 q 993 1124 969 1149 q 1014 1076 1014 1103 q 969 963 1014 1015 q 835 899 931 917 l 800 892 z "},"":{"ha":1028,"x_min":18,"x_max":925,"o":"m 378 872 q 329 853 363 867 q 310 844 322 849 q 236 750 261 826 q 229 713 229 728 q 279 618 229 658 q 386 578 329 578 q 417 581 404 578 q 542 586 494 596 q 625 517 590 578 q 646 424 646 479 q 638 340 646 388 q 633 313 638 338 q 594 339 618 322 q 379 388 508 388 q 329 386 349 388 q 108 295 199 378 q 18 90 18 213 q 181 -197 18 -92 q 324 -237 236 -233 q 515 -211 419 -243 q 674 -112 625 -176 l 688 -86 q 789 -189 731 -181 q 821 -192 806 -192 q 918 -140 885 -192 q 925 -111 925 -131 q 885 -7 925 -68 q 850 178 850 44 q 858 322 850 243 q 874 644 885 579 q 822 764 864 701 q 715 849 793 810 q 579 888 636 888 l 485 888 q 378 872 418 889 m 338 -21 q 286 -7 310 -21 q 246 99 238 21 q 368 188 254 188 q 460 117 435 188 q 468 76 468 93 q 424 4 468 32 q 338 -21 385 -21 m 635 1099 q 619 1121 629 1115 l 568 1138 q 489 1092 531 1150 q 469 1063 479 1076 q 426 975 443 1018 q 443 929 426 938 l 465 918 q 518 924 482 913 q 607 1017 572 958 q 624 1056 607 1018 q 635 1099 636 1082 z "},"":{"ha":936,"x_min":47,"x_max":894,"o":"m 892 608 q 631 883 889 829 q 467 901 543 901 q 229 829 321 901 q 47 417 47 710 q 56 276 47 346 q 271 -217 104 -131 q 475 -268 372 -268 q 610 -247 542 -268 q 776 -79 786 -194 q 700 13 769 13 q 661 7 679 13 q 456 -12 558 -22 q 321 108 369 -4 q 290 239 290 181 q 294 282 290 261 q 542 226 431 226 q 731 281 649 226 q 892 608 894 389 m 464 686 q 514 699 493 699 q 600 626 571 699 q 619 546 619 579 q 597 492 619 511 q 486 458 556 454 q 406 492 440 461 q 371 569 372 524 q 464 686 368 646 m 635 1099 q 619 1121 629 1115 l 568 1138 q 489 1092 531 1150 q 469 1063 479 1076 q 426 975 443 1018 q 443 929 426 938 l 465 918 q 518 924 482 913 q 607 1017 572 958 q 624 1056 607 1018 q 635 1099 636 1082 z "},"":{"ha":488,"x_min":132,"x_max":439,"o":"m 251 667 q 153 439 175 646 q 139 142 149 401 q 139 -76 132 -28 q 233 -236 154 -204 q 301 -250 268 -250 q 367 -232 336 -250 q 426 -106 424 -200 q 417 65 428 -49 q 407 236 406 179 q 400 476 413 376 q 319 664 379 647 q 267 671 285 671 q 251 667 254 671 m 438 961 q 421 989 431 983 l 364 1011 q 278 953 322 1026 q 256 915 267 933 q 210 804 226 860 q 226 746 208 757 l 251 732 q 308 739 271 725 q 407 858 368 783 q 425 907 407 860 q 438 961 439 940 z "},"":{"ha":1146,"x_min":64,"x_max":1047,"o":"m 588 481 q 722 437 688 472 q 758 308 756 401 q 751 67 761 229 q 760 -121 744 -60 q 892 -239 788 -229 q 1040 -83 1022 -251 q 1044 57 1042 -65 q 1032 392 1047 179 q 892 711 1015 632 q 685 769 803 769 q 586 758 644 769 q 346 678 403 726 q 350 726 350 703 q 343 796 350 760 q 254 864 328 857 q 79 765 111 878 q 83 517 64 713 q 103 231 106 286 l 92 49 q 88 -75 88 -18 q 243 -228 88 -232 q 369 -7 381 -222 q 360 132 365 39 q 388 369 353 285 q 558 482 435 482 q 588 481 572 482 m 714 885 q 575 924 663 885 q 433 982 501 982 q 371 921 393 982 q 294 876 354 876 q 219 951 219 876 q 276 1058 219 997 q 410 1126 339 1126 q 506 1096 450 1126 q 590 1047 533 1079 q 663 1021 611 1036 l 685 1021 q 719 1028 696 1024 q 749 1055 732 1033 q 771 1089 767 1076 q 843 1142 786 1142 q 907 1117 883 1142 q 928 1069 928 1096 q 883 956 928 1008 q 749 892 844 910 l 714 885 z "},"":{"ha":1039,"x_min":61,"x_max":981,"o":"m 551 839 q 188 744 293 851 q 100 597 128 685 q 65 431 85 553 q 61 365 61 404 q 83 146 61 281 q 138 -65 107 0 q 272 -206 178 -151 q 503 -260 356 -251 q 750 -212 639 -267 q 924 -49 868 -157 q 981 181 981 60 q 978 239 981 213 q 946 490 956 440 q 719 818 892 765 q 551 839 669 833 m 703 211 q 706 161 706 176 q 633 13 706 56 q 518 -22 576 -22 q 453 -11 485 -22 q 353 161 363 21 q 343 403 346 260 q 376 563 342 515 q 533 618 418 619 q 658 526 619 617 q 690 368 681 472 q 703 211 690 368 m 661 1067 q 646 1089 656 1083 l 594 1106 q 515 1060 557 1118 q 496 1031 506 1044 q 453 943 469 986 q 469 897 453 906 l 492 886 q 544 892 508 881 q 633 985 599 926 q 650 1024 633 986 q 661 1067 663 1050 z "},"":{"ha":1117,"x_min":50,"x_max":1033,"o":"m 1033 -60 q 1022 -3 1033 -29 q 967 275 996 60 q 951 490 951 386 q 958 603 951 528 q 965 715 965 678 q 847 874 965 853 q 813 876 831 876 q 699 739 704 876 q 693 401 697 626 q 667 165 689 231 q 496 40 625 40 q 347 149 360 40 q 343 474 338 236 q 342 711 347 660 q 231 886 322 879 q 60 722 68 899 q 63 439 50 529 q 78 211 68 394 q 108 -15 86 71 q 254 -189 140 -133 q 483 -228 350 -235 q 731 -167 635 -219 q 792 -85 794 -132 q 881 -175 806 -150 q 935 -185 908 -185 q 1010 -144 982 -185 q 1033 -60 1033 -110 m 664 1067 q 646 1093 657 1088 l 585 1113 q 492 1058 540 1126 q 469 1024 481 1040 q 419 921 438 972 q 438 867 418 876 l 464 854 q 526 861 485 847 q 632 971 589 903 q 651 1017 631 972 q 664 1067 665 1047 z "},"":{"ha":1117,"x_min":50,"x_max":1033,"o":"m 1033 -60 q 1022 -3 1033 -29 q 967 275 996 60 q 951 490 951 386 q 958 603 951 528 q 965 715 965 678 q 847 874 965 853 q 813 876 831 876 q 699 739 704 876 q 693 401 697 626 q 667 165 689 231 q 496 40 625 40 q 347 149 360 40 q 343 474 338 236 q 342 711 347 660 q 231 886 322 879 q 60 722 68 899 q 63 439 50 529 q 78 211 68 394 q 108 -15 86 71 q 254 -189 140 -133 q 483 -228 350 -235 q 731 -167 635 -219 q 792 -85 794 -132 q 881 -175 806 -150 q 935 -185 908 -185 q 1010 -144 982 -185 q 1033 -60 1033 -110 m 431 1033 q 371 1124 424 1124 q 307 1101 338 1124 q 267 1047 276 1079 q 260 1011 260 1026 q 282 951 260 978 q 304 939 297 944 q 306 935 304 938 l 306 933 q 325 922 313 926 q 389 931 363 914 q 431 1033 438 961 m 754 1040 q 688 1124 746 1124 q 617 1103 650 1124 q 571 1053 583 1083 q 564 1021 564 1035 q 589 965 564 989 q 614 954 606 960 q 615 950 614 953 l 615 949 q 638 939 622 942 q 708 946 679 931 q 754 1040 761 974 z "}}}
